PathFileType	4	(X/Y/Z)	3_coords_data.trc
DataRate	CameraRate	NumFrames	NumMarkers	Units	OrigDataRate	OrigDataStartFrame	OrigNumFrames
30.0	30.0	7	21	m	30.0	59	78
Frame#	Time	THUMB_TIP	THUMB_IP	THUMB_MCP	THUMB_CMC	INDEX_TIP	INDEX_DIP	INDEX_PIP	INDEX_MCP	MIDDLE_TIP	MIDDLE_DIP	MIDDLE_PIP	MIDDLE_MCP	RING_TIP	RING_DIP	RING_PIP	RING_MCP	PINKY_TIP	PINKY_DIP	PINKY_PIP	PINKY_MCP	WRIST
X1	Y1	Z1	X2	Y2	Z2	X3	Y3	Z3	X4	Y4	Z4	X5	Y5	Z5	X6	Y6	Z6	X7	Y7	Z7	X8	Y8	Z8	X9	Y9	Z9	X10	Y10	Z10	X11	Y11	Z11	X12	Y12	Z12	X13	Y13	Z13	X14	Y14	Z14	X15	Y15	Z15	X16	Y16	Z16	X17	Y17	Z17	X18	Y18	Z18	X19	Y19	Z19	X20	Y20	Z20	X21	Y21	Z21
58	1.9333333333333333	-0.14185400390625	-0.07470929718017578	0.9131270141601563	-0.1558769989013672	-0.07302739715576172	0.9370020141601563	-0.16493099975585937	-0.06812670135498047	0.9663389892578125	-0.1713780059814453	-0.04390309906005859	0.992197021484375	-0.1265260009765625	-0.0349474983215332	0.8735230102539062	-0.1454550018310547	-0.040141498565673825	0.88397998046875	-0.16351199340820313	-0.04445840072631836	0.8997449951171875	-0.18031500244140625	-0.046672000885009765	0.9346580200195312	-0.12865199279785156	-0.011095999717712402	0.8686619873046875	-0.14753500366210937	-0.015148500442504882	0.8795969848632812	-0.16992599487304688	-0.02023699951171875	0.8972210083007812	-0.185593994140625	-0.024971099853515626	0.9335289916992188	-0.13578599548339843	0.0077130098342895505	0.8915969848632812	-0.15542999267578125	0.005597559928894043	0.8949910278320312	-0.17686700439453126	0.000935190975666046	0.9064190063476563	-0.18877799987792968	-0.006402249813079834	0.9412230224609375	-0.14745399475097656	0.022553199768066405	0.9112659912109375	-0.16404200744628905	0.023791799545288084	0.9148590087890625	-0.17902200317382813	0.020913000106811522	0.9239530029296875	-0.18954100036621094	0.011451899528503418	0.9516290283203125	-0.19324600219726562	-0.02232749938964844	1.0178400268554688
59	1.9666666666666666	-0.1416179962158203	-0.07212580108642579	0.91356201171875	-0.15589999389648437	-0.07151850128173828	0.9370800170898438	-0.16489700317382813	-0.06697119903564454	0.9664019775390625	-0.1705449981689453	-0.04305699920654297	0.9922969970703125	-0.12804800415039064	-0.033777099609375	0.8723770141601562	-0.14655900573730468	-0.038869300842285154	0.8837650146484375	-0.1643699951171875	-0.04304510116577148	0.8998740234375	-0.1791300048828125	-0.04545769882202148	0.93539501953125	-0.12896499633789063	-0.009614109992980957	0.8687210083007812	-0.14772599792480468	-0.013623900413513183	0.8804569702148437	-0.16992100524902343	-0.01868869972229004	0.897844970703125	-0.18506599426269532	-0.023818700790405274	0.9340289916992187	-0.13601400756835938	0.009122719764709472	0.8914520263671875	-0.15567999267578125	0.006988210201263428	0.8951690063476563	-0.17645799255371095	0.00246353006362915	0.9067930297851563	-0.1886719970703125	-0.005093540191650391	0.9417979736328125	-0.14788999938964845	0.024047300338745116	0.9108800048828125	-0.16383999633789062	0.025194999694824218	0.9149149780273438	-0.17836300659179688	0.02232419967651367	0.9247680053710937	-0.18842599487304687	0.012675299644470214	0.952343017578125	-0.19363999938964843	-0.021343000411987306	1.018530029296875
60	2.0	-0.1412969970703125	-0.07023590087890624	0.914176025390625	-0.15631599426269532	-0.07037030029296874	0.937	-0.1650919952392578	-0.06601570129394531	0.966531982421875	-0.16981500244140624	-0.04252790069580078	0.9928209838867188	-0.1293509979248047	-0.032825199127197266	0.87164599609375	-0.147593994140625	-0.0378302001953125	0.8834979858398437	-0.1649929962158203	-0.04199319839477539	0.8999619750976563	-0.18048300170898438	-0.04439849853515625	0.9351389770507812	-0.1291490020751953	-0.008320090293884277	0.8688889770507813	-0.14816200256347656	-0.012344799995422363	0.8801690063476563	-0.17031199645996092	-0.017477300643920897	0.8980079956054687	-0.1860760040283203	-0.02280069923400879	0.9345050048828125	-0.13641499328613282	0.010398900032043457	0.8910579833984374	-0.15642799377441408	0.008188249588012696	0.8952030029296875	-0.17741299438476563	0.0035617299079895018	0.9071160278320313	-0.18880499267578124	-0.004133309841156006	0.9421610107421875	-0.14846200561523437	0.02545989990234375	0.910344970703125	-0.1646750030517578	0.026326400756835937	0.91497900390625	-0.17889100646972655	0.02321489906311035	0.925208984375	-0.1883260040283203	0.013416799545288086	0.9523930053710937	-0.19363999938964843	-0.02061039924621582	1.018739990234375
61	2.033333333333333	-0.14160499572753907	-0.0692948989868164	0.9144630126953125	-0.156572998046875	-0.06995210266113282	0.937322021484375	-0.1652760009765625	-0.06552210235595703	0.9667230224609376	-0.17086000061035156	-0.04168239974975586	0.9929110107421875	-0.13114199829101564	-0.03259540176391602	0.8704990234375	-0.14885200500488283	-0.037494098663330075	0.8833380126953125	-0.16583799743652344	-0.04161399841308594	0.9001829833984375	-0.1810260009765625	-0.043738998413085935	0.9352260131835938	-0.1292259979248047	-0.007703239917755127	0.8690800170898437	-0.1482030029296875	-0.011760899543762207	0.88068701171875	-0.17011900329589844	-0.01684679985046387	0.8985009765625	-0.1859010009765625	-0.02209670066833496	0.9347379760742187	-0.1367949981689453	0.010914500236511231	0.8909450073242188	-0.1568509979248047	0.008817990303039551	0.8952260131835937	-0.17720799255371095	0.004224380016326904	0.907344970703125	-0.19063999938964843	-0.003792449951171875	0.9429299926757813	-0.14862399291992187	0.02611090087890625	0.9101500244140625	-0.16492300415039063	0.026841699600219728	0.915010986328125	-0.17826300048828125	0.023833799362182616	0.9255260009765625	-0.18773500061035156	0.014177900314331054	0.95260498046875	-0.193927001953125	-0.01999329948425293	1.0189099731445312
62	2.066666666666667	-0.14220599365234374	-0.06870010375976562	0.9145170288085938	-0.15723399353027342	-0.06953780364990235	0.937406982421875	-0.16587100219726564	-0.06534290313720703	0.966677978515625	-0.17103799438476563	-0.04138769912719727	0.9926370239257812	-0.13190699768066405	-0.03243339920043945	0.8700850219726562	-0.14940199279785157	-0.037205501556396486	0.8830430297851563	-0.16661900329589843	-0.04123220062255859	0.8998560180664062	-0.1819429931640625	-0.043681198120117185	0.9347789916992187	-0.12930000305175782	-0.0073854498863220215	0.8693469848632812	-0.148281005859375	-0.011437700271606446	0.8809569702148438	-0.17046400451660157	-0.016549800872802733	0.898531005859375	-0.1863719940185547	-0.021985700607299805	0.9347839965820313	-0.13704299926757812	0.011184300422668457	0.8908140258789062	-0.1568730010986328	0.009137189865112305	0.8953200073242188	-0.1782729949951172	0.004489590167999267	0.9069959716796875	-0.19093299865722657	-0.003651880025863647	0.9432150268554688	-0.14893299865722656	0.026308000564575194	0.9098930053710937	-0.1651419982910156	0.027111900329589843	0.9151019897460938	-0.17919200134277344	0.02395919990539551	0.9255079956054687	-0.18847700500488282	0.014225700378417968	0.9537030029296875	-0.19288400268554687	-0.019760299682617187	1.0185999755859374
63	2.1	-0.14263299560546874	-0.06863909912109376	0.9144219970703125	-0.15744500732421876	-0.06980789947509766	0.9373189697265625	-0.1661020050048828	-0.06530449676513672	0.9666090087890625	-0.17136000061035156	-0.0414286994934082	0.9928590087890625	-0.13236300659179687	-0.03225749969482422	0.86985400390625	-0.14971400451660155	-0.03710770034790039	0.882948974609375	-0.16673800659179688	-0.041242298126220704	0.8999459838867188	-0.18189599609375	-0.043655399322509766	0.934718017578125	-0.1298489990234375	-0.007457530021667481	0.868781982421875	-0.14884100341796874	-0.011401200294494629	0.88039599609375	-0.1704880065917969	-0.016563499450683594	0.898635986328125	-0.18724000549316405	-0.022078399658203126	0.9344660034179687	-0.13729299926757813	0.011241399765014648	0.8908820190429687	-0.15766600036621095	0.009148449897766113	0.89493701171875	-0.17838099670410157	0.004530189990997314	0.9072429809570313	-0.1913509979248047	-0.003618419885635376	0.9430339965820312	-0.149427001953125	0.026513900756835938	0.9093839721679687	-0.1659290008544922	0.027124099731445313	0.91472900390625	-0.17922599792480468	0.024008699417114258	0.92518701171875	-0.18800199890136718	0.014212200164794922	0.9532150268554688	-0.1943159942626953	-0.01970739936828613	1.01902001953125
64	2.1333333333333333	-0.14287300109863282	-0.06903479766845703	0.9143489990234375	-0.1579250030517578	-0.07000309753417969	0.937198974609375	-0.16679600524902344	-0.06551570129394531	0.9665700073242187	-0.17148899841308593	-0.04165299987792969	0.9928820190429688	-0.13268899536132814	-0.03246110153198242	0.869541015625	-0.14999099731445312	-0.0373051986694336	0.8827839965820312	-0.16692100524902342	-0.04148839950561523	0.89985302734375	-0.1829320068359375	-0.043986900329589844	0.9346069946289063	-0.13035299682617188	-0.007783629894256592	0.86847998046875	-0.1489770050048828	-0.011689599990844726	0.8803499755859375	-0.17066099548339844	-0.016891700744628906	0.8983400268554688	-0.18635499572753905	-0.022439399719238282	0.9345260009765625	-0.13737399291992186	0.010940400123596192	0.8906160278320312	-0.15771200561523438	0.008935130119323731	0.89477001953125	-0.1787100067138672	0.004295390129089355	0.9070250244140625	-0.19112899780273437	-0.003792020082473755	0.9426699829101562	-0.14985600280761718	0.026204200744628908	0.9089140014648438	-0.16591700744628907	0.026825399398803712	0.9145070190429687	-0.179343994140625	0.02378770065307617	0.92497802734375	-0.18901600646972655	0.0138681001663208	0.9535800170898437	-0.19378700256347656	-0.019950199127197265	1.01872998046875
